<svg width="852" height="900" viewBox="0 0 852 900" fill="none" xmlns="http://www.w3.org/2000/svg">
<mask id="mask0" mask-type="alpha" maskUnits="userSpaceOnUse" x="-86" y="0" width="938" height="900">
<rect x="-86" width="937.5" height="900" fill="white"/>
</mask>
<g mask="url(#mask0)">
<circle opacity="0.2" cx="289" cy="450" r="562.5" fill="url(#paint0_linear)"/>
<circle opacity="0.4" cx="289" cy="450" r="468.75" fill="url(#paint1_linear)"/>
<circle cx="290.875" cy="451.875" r="375" fill="url(#paint2_linear)"/>
</g>
<g clip-path="url(#clip0)">
<path d="M620.828 783.726C613.039 775.749 598.173 758.871 586.101 735.484C563.448 691.583 560.138 645.354 576.261 598.078C592.891 549.324 601.008 502.547 600.387 459.038L600.408 457.358C600.406 288.913 463.369 151.875 294.927 151.875C126.486 151.877 -10.5519 288.915 -10.5519 457.359C-10.5519 625.8 126.484 762.838 294.927 762.838C379.128 762.838 457.555 729.308 515.763 668.424C517.559 700.284 526.356 731.387 541.915 760.86C557.704 790.776 576.721 811.757 586.653 821.601C588.411 823.346 590.785 824.318 593.254 824.318C593.389 824.318 593.528 824.314 593.667 824.306C596.281 824.192 598.724 822.992 600.415 820.995L621.276 796.335C624.394 792.643 624.203 787.187 620.828 783.726ZM165.055 382.376C156.153 397.798 139.548 407.378 121.718 407.378C112.996 407.378 104.369 405.06 96.7713 400.674C85.2081 393.997 76.9356 383.218 73.4819 370.322C70.0263 357.426 71.8019 343.954 78.4788 332.389C87.3813 316.967 103.986 307.388 121.816 307.388C130.536 307.388 139.163 309.705 146.759 314.089C170.629 327.878 178.838 358.513 165.055 382.376ZM73.48 544.393C76.9356 531.497 85.2063 520.719 96.7675 514.041C104.367 509.657 112.996 507.338 121.718 507.338C139.544 507.338 156.151 516.915 165.055 532.339C178.838 556.206 170.629 586.836 146.763 600.624C139.161 605.012 130.534 607.329 121.814 607.329C103.986 607.329 87.3813 597.75 78.4769 582.324C71.8 570.763 70.0263 557.291 73.48 544.393ZM294.927 607.318C308.281 607.318 320.832 612.514 330.276 621.962C339.715 631.403 344.916 643.954 344.916 657.313C344.916 684.876 322.493 707.299 294.931 707.299C267.37 707.299 244.947 684.876 244.947 657.313C244.945 629.747 267.366 607.318 294.927 607.318ZM294.927 307.395C267.366 307.395 244.943 284.972 244.943 257.409C244.943 229.845 267.366 207.42 294.927 207.42C322.489 207.42 344.913 229.845 344.913 257.409C344.913 284.972 322.489 307.395 294.927 307.395ZM294.927 392.1C330.912 392.1 360.19 421.374 360.19 457.361C360.19 493.342 330.916 522.619 294.927 522.619C258.944 522.619 229.669 493.346 229.669 457.361C229.671 421.374 258.944 392.1 294.927 392.1ZM493.09 400.673C485.485 405.06 476.862 407.378 468.136 407.378C450.308 407.378 433.703 397.798 424.797 382.374C411.012 358.509 419.221 327.879 443.091 314.091C450.691 309.703 459.314 307.386 468.04 307.386C485.869 307.386 502.476 316.965 511.381 332.387C525.162 356.259 516.955 386.889 493.09 400.673ZM424.799 532.341C433.703 516.919 450.306 507.339 468.134 507.339C476.858 507.339 485.485 509.657 493.088 514.044C504.623 520.708 512.888 531.489 516.344 544.397C519.809 557.316 518.041 570.782 511.381 582.326C502.476 597.75 485.869 607.328 468.04 607.328C459.321 607.328 450.693 605.012 443.097 600.628C419.226 586.839 411.019 556.208 424.799 532.341Z" fill="white"/>
</g>
<defs>
<linearGradient id="paint0_linear" x1="276.086" y1="-112.5" x2="276.086" y2="1012.5" gradientUnits="userSpaceOnUse">
<stop stop-color="#495DFF"/>
<stop offset="1" stop-color="#FE6955"/>
</linearGradient>
<linearGradient id="paint1_linear" x1="278.238" y1="-18.75" x2="278.238" y2="918.75" gradientUnits="userSpaceOnUse">
<stop stop-color="#495DFF"/>
<stop offset="1" stop-color="#FE6955"/>
</linearGradient>
<linearGradient id="paint2_linear" x1="282.266" y1="76.875" x2="282.266" y2="826.875" gradientUnits="userSpaceOnUse">
<stop stop-color="#495DFF"/>
<stop offset="1" stop-color="#FE6955"/>
</linearGradient>
<clipPath id="clip0">
<rect width="672.441" height="672.441" fill="white" transform="translate(-29.75 151.875)"/>
</clipPath>
</defs>
</svg>
